<mxfile host="65bd71144e">
    <diagram id="NVdJym-YfN16Rzv1eCg7" name="Seite-1">
        <mxGraphModel dx="2364" dy="836" grid="1" gridSize="10" guides="1" tooltips="1" connect="1" arrows="1" fold="1" page="1" pageScale="1" pageWidth="827" pageHeight="1169" math="0" shadow="0">
            <root>
                <mxCell id="0"/>
                <mxCell id="1" parent="0"/>
                <mxCell id="TAqn6XcjfVY4mnIGSRpS-77" style="edgeStyle=orthogonalEdgeStyle;rounded=0;orthogonalLoop=1;jettySize=auto;html=1;entryX=0.5;entryY=0;entryDx=0;entryDy=0;endArrow=none;endFill=0;" parent="1" source="TAqn6XcjfVY4mnIGSRpS-1" target="TAqn6XcjfVY4mnIGSRpS-76" edge="1">
                    <mxGeometry relative="1" as="geometry"/>
                </mxCell>
                <mxCell id="TAqn6XcjfVY4mnIGSRpS-1" value="Tenant" style="rounded=0;whiteSpace=wrap;html=1;" parent="1" vertex="1">
                    <mxGeometry x="640" y="80" width="120" height="60" as="geometry"/>
                </mxCell>
                <mxCell id="TAqn6XcjfVY4mnIGSRpS-2" value="Owner" style="rounded=0;whiteSpace=wrap;html=1;" parent="1" vertex="1">
                    <mxGeometry x="640" y="490" width="120" height="60" as="geometry"/>
                </mxCell>
                <mxCell id="TAqn6XcjfVY4mnIGSRpS-3" value="Property Manager" style="rounded=0;whiteSpace=wrap;html=1;" parent="1" vertex="1">
                    <mxGeometry x="280" y="720" width="120" height="60" as="geometry"/>
                </mxCell>
                <mxCell id="TAqn6XcjfVY4mnIGSRpS-55" style="edgeStyle=orthogonalEdgeStyle;rounded=0;orthogonalLoop=1;jettySize=auto;html=1;entryX=0;entryY=0.5;entryDx=0;entryDy=0;endArrow=none;endFill=0;" parent="1" source="TAqn6XcjfVY4mnIGSRpS-5" target="TAqn6XcjfVY4mnIGSRpS-54" edge="1">
                    <mxGeometry relative="1" as="geometry"/>
                </mxCell>
                <mxCell id="TAqn6XcjfVY4mnIGSRpS-5" value="Address" style="rounded=0;whiteSpace=wrap;html=1;" parent="1" vertex="1">
                    <mxGeometry x="-40" y="490" width="120" height="60" as="geometry"/>
                </mxCell>
                <mxCell id="TAqn6XcjfVY4mnIGSRpS-6" value="Property" style="rounded=0;whiteSpace=wrap;html=1;" parent="1" vertex="1">
                    <mxGeometry x="280" y="490" width="120" height="60" as="geometry"/>
                </mxCell>
                <mxCell id="TAqn6XcjfVY4mnIGSRpS-50" style="edgeStyle=orthogonalEdgeStyle;rounded=0;orthogonalLoop=1;jettySize=auto;html=1;entryX=0.5;entryY=0;entryDx=0;entryDy=0;endArrow=none;endFill=0;" parent="1" source="TAqn6XcjfVY4mnIGSRpS-7" target="TAqn6XcjfVY4mnIGSRpS-49" edge="1">
                    <mxGeometry relative="1" as="geometry"/>
                </mxCell>
                <mxCell id="TAqn6XcjfVY4mnIGSRpS-88" style="edgeStyle=orthogonalEdgeStyle;rounded=0;orthogonalLoop=1;jettySize=auto;html=1;entryX=0;entryY=0.5;entryDx=0;entryDy=0;endArrow=none;endFill=0;" parent="1" source="TAqn6XcjfVY4mnIGSRpS-7" target="TAqn6XcjfVY4mnIGSRpS-12" edge="1">
                    <mxGeometry relative="1" as="geometry"/>
                </mxCell>
                <mxCell id="TAqn6XcjfVY4mnIGSRpS-7" value="Flat" style="rounded=0;whiteSpace=wrap;html=1;" parent="1" vertex="1">
                    <mxGeometry x="280" y="280" width="120" height="60" as="geometry"/>
                </mxCell>
                <mxCell id="TAqn6XcjfVY4mnIGSRpS-9" value="Payment" style="shape=associativeEntity;whiteSpace=wrap;html=1;align=center;" parent="1" vertex="1">
                    <mxGeometry x="80" y="40" width="140" height="60" as="geometry"/>
                </mxCell>
                <mxCell id="TAqn6XcjfVY4mnIGSRpS-11" value="Bill" style="shape=associativeEntity;whiteSpace=wrap;html=1;align=center;" parent="1" vertex="1">
                    <mxGeometry x="80" y="120" width="140" height="60" as="geometry"/>
                </mxCell>
                <mxCell id="TAqn6XcjfVY4mnIGSRpS-82" style="edgeStyle=orthogonalEdgeStyle;rounded=0;orthogonalLoop=1;jettySize=auto;html=1;entryX=0.5;entryY=0;entryDx=0;entryDy=0;endArrow=none;endFill=0;" parent="1" source="TAqn6XcjfVY4mnIGSRpS-12" target="TAqn6XcjfVY4mnIGSRpS-80" edge="1">
                    <mxGeometry relative="1" as="geometry"/>
                </mxCell>
                <mxCell id="TAqn6XcjfVY4mnIGSRpS-12" value="Contract" style="shape=associativeEntity;whiteSpace=wrap;html=1;align=center;" parent="1" vertex="1">
                    <mxGeometry x="630" y="280" width="140" height="60" as="geometry"/>
                </mxCell>
                <mxCell id="TAqn6XcjfVY4mnIGSRpS-13" value="Transaction" style="shape=associativeEntity;whiteSpace=wrap;html=1;align=center;" parent="1" vertex="1">
                    <mxGeometry x="80" y="200" width="140" height="60" as="geometry"/>
                </mxCell>
                <mxCell id="TAqn6XcjfVY4mnIGSRpS-39" style="edgeStyle=orthogonalEdgeStyle;rounded=0;orthogonalLoop=1;jettySize=auto;html=1;entryX=1;entryY=0.5;entryDx=0;entryDy=0;endArrow=none;endFill=0;" parent="1" source="TAqn6XcjfVY4mnIGSRpS-37" target="TAqn6XcjfVY4mnIGSRpS-6" edge="1">
                    <mxGeometry relative="1" as="geometry"/>
                </mxCell>
                <mxCell id="TAqn6XcjfVY4mnIGSRpS-40" style="edgeStyle=orthogonalEdgeStyle;rounded=0;orthogonalLoop=1;jettySize=auto;html=1;entryX=0;entryY=0.5;entryDx=0;entryDy=0;endArrow=none;endFill=0;" parent="1" source="TAqn6XcjfVY4mnIGSRpS-37" target="TAqn6XcjfVY4mnIGSRpS-2" edge="1">
                    <mxGeometry relative="1" as="geometry"/>
                </mxCell>
                <mxCell id="TAqn6XcjfVY4mnIGSRpS-37" value="has" style="rhombus;whiteSpace=wrap;html=1;" parent="1" vertex="1">
                    <mxGeometry x="480" y="495" width="80" height="50" as="geometry"/>
                </mxCell>
                <mxCell id="TAqn6XcjfVY4mnIGSRpS-42" value="1..n" style="text;html=1;strokeColor=none;fillColor=none;align=center;verticalAlign=middle;whiteSpace=wrap;rounded=0;" parent="1" vertex="1">
                    <mxGeometry x="400" y="490" width="60" height="30" as="geometry"/>
                </mxCell>
                <mxCell id="TAqn6XcjfVY4mnIGSRpS-43" value="1..1" style="text;html=1;strokeColor=none;fillColor=none;align=center;verticalAlign=middle;whiteSpace=wrap;rounded=0;" parent="1" vertex="1">
                    <mxGeometry x="580" y="490" width="60" height="30" as="geometry"/>
                </mxCell>
                <mxCell id="TAqn6XcjfVY4mnIGSRpS-45" style="edgeStyle=orthogonalEdgeStyle;rounded=0;orthogonalLoop=1;jettySize=auto;html=1;entryX=0.5;entryY=1;entryDx=0;entryDy=0;endArrow=none;endFill=0;" parent="1" source="TAqn6XcjfVY4mnIGSRpS-44" target="TAqn6XcjfVY4mnIGSRpS-6" edge="1">
                    <mxGeometry relative="1" as="geometry"/>
                </mxCell>
                <mxCell id="TAqn6XcjfVY4mnIGSRpS-46" style="edgeStyle=orthogonalEdgeStyle;rounded=0;orthogonalLoop=1;jettySize=auto;html=1;endArrow=none;endFill=0;" parent="1" source="TAqn6XcjfVY4mnIGSRpS-44" target="TAqn6XcjfVY4mnIGSRpS-3" edge="1">
                    <mxGeometry relative="1" as="geometry"/>
                </mxCell>
                <mxCell id="TAqn6XcjfVY4mnIGSRpS-44" value="manages" style="rhombus;whiteSpace=wrap;html=1;" parent="1" vertex="1">
                    <mxGeometry x="300" y="610" width="80" height="50" as="geometry"/>
                </mxCell>
                <mxCell id="TAqn6XcjfVY4mnIGSRpS-47" value="1..1" style="text;html=1;strokeColor=none;fillColor=none;align=center;verticalAlign=middle;whiteSpace=wrap;rounded=0;" parent="1" vertex="1">
                    <mxGeometry x="340" y="690" width="60" height="30" as="geometry"/>
                </mxCell>
                <mxCell id="TAqn6XcjfVY4mnIGSRpS-48" value="0..n" style="text;html=1;strokeColor=none;fillColor=none;align=center;verticalAlign=middle;whiteSpace=wrap;rounded=0;" parent="1" vertex="1">
                    <mxGeometry x="340" y="550" width="60" height="30" as="geometry"/>
                </mxCell>
                <mxCell id="TAqn6XcjfVY4mnIGSRpS-51" style="edgeStyle=orthogonalEdgeStyle;rounded=0;orthogonalLoop=1;jettySize=auto;html=1;endArrow=none;endFill=0;" parent="1" source="TAqn6XcjfVY4mnIGSRpS-49" target="TAqn6XcjfVY4mnIGSRpS-6" edge="1">
                    <mxGeometry relative="1" as="geometry"/>
                </mxCell>
                <mxCell id="TAqn6XcjfVY4mnIGSRpS-49" value="has" style="rhombus;whiteSpace=wrap;html=1;" parent="1" vertex="1">
                    <mxGeometry x="300" y="400" width="80" height="50" as="geometry"/>
                </mxCell>
                <mxCell id="TAqn6XcjfVY4mnIGSRpS-52" value="1..n" style="text;html=1;strokeColor=none;fillColor=none;align=center;verticalAlign=middle;whiteSpace=wrap;rounded=0;" parent="1" vertex="1">
                    <mxGeometry x="340" y="340" width="60" height="30" as="geometry"/>
                </mxCell>
                <mxCell id="TAqn6XcjfVY4mnIGSRpS-53" value="1..1" style="text;html=1;strokeColor=none;fillColor=none;align=center;verticalAlign=middle;whiteSpace=wrap;rounded=0;" parent="1" vertex="1">
                    <mxGeometry x="340" y="460" width="60" height="30" as="geometry"/>
                </mxCell>
                <mxCell id="TAqn6XcjfVY4mnIGSRpS-56" style="edgeStyle=orthogonalEdgeStyle;rounded=0;orthogonalLoop=1;jettySize=auto;html=1;entryX=0;entryY=0.5;entryDx=0;entryDy=0;endArrow=none;endFill=0;" parent="1" source="TAqn6XcjfVY4mnIGSRpS-54" target="TAqn6XcjfVY4mnIGSRpS-6" edge="1">
                    <mxGeometry relative="1" as="geometry"/>
                </mxCell>
                <mxCell id="TAqn6XcjfVY4mnIGSRpS-54" value="has" style="rhombus;whiteSpace=wrap;html=1;" parent="1" vertex="1">
                    <mxGeometry x="140" y="495" width="80" height="50" as="geometry"/>
                </mxCell>
                <mxCell id="TAqn6XcjfVY4mnIGSRpS-57" value="1..1" style="text;html=1;strokeColor=none;fillColor=none;align=center;verticalAlign=middle;whiteSpace=wrap;rounded=0;" parent="1" vertex="1">
                    <mxGeometry x="80" y="490" width="60" height="30" as="geometry"/>
                </mxCell>
                <mxCell id="TAqn6XcjfVY4mnIGSRpS-58" value="1..1" style="text;html=1;strokeColor=none;fillColor=none;align=center;verticalAlign=middle;whiteSpace=wrap;rounded=0;" parent="1" vertex="1">
                    <mxGeometry x="220" y="490" width="60" height="30" as="geometry"/>
                </mxCell>
                <mxCell id="TAqn6XcjfVY4mnIGSRpS-67" value="1..1" style="text;html=1;strokeColor=none;fillColor=none;align=center;verticalAlign=middle;whiteSpace=wrap;rounded=0;" parent="1" vertex="1">
                    <mxGeometry x="400" y="280" width="60" height="30" as="geometry"/>
                </mxCell>
                <mxCell id="TAqn6XcjfVY4mnIGSRpS-68" value="1..1" style="text;html=1;strokeColor=none;fillColor=none;align=center;verticalAlign=middle;whiteSpace=wrap;rounded=0;" parent="1" vertex="1">
                    <mxGeometry x="700" y="140" width="60" height="30" as="geometry"/>
                </mxCell>
                <mxCell id="TAqn6XcjfVY4mnIGSRpS-69" value="1..1" style="text;html=1;strokeColor=none;fillColor=none;align=center;verticalAlign=middle;whiteSpace=wrap;rounded=0;" parent="1" vertex="1">
                    <mxGeometry x="700" y="460" width="60" height="30" as="geometry"/>
                </mxCell>
                <mxCell id="TAqn6XcjfVY4mnIGSRpS-78" style="edgeStyle=orthogonalEdgeStyle;rounded=0;orthogonalLoop=1;jettySize=auto;html=1;endArrow=none;endFill=0;" parent="1" source="TAqn6XcjfVY4mnIGSRpS-76" target="TAqn6XcjfVY4mnIGSRpS-12" edge="1">
                    <mxGeometry relative="1" as="geometry"/>
                </mxCell>
                <mxCell id="TAqn6XcjfVY4mnIGSRpS-76" value="has" style="rhombus;whiteSpace=wrap;html=1;" parent="1" vertex="1">
                    <mxGeometry x="660" y="180" width="80" height="50" as="geometry"/>
                </mxCell>
                <mxCell id="TAqn6XcjfVY4mnIGSRpS-83" style="edgeStyle=orthogonalEdgeStyle;rounded=0;orthogonalLoop=1;jettySize=auto;html=1;endArrow=none;endFill=0;" parent="1" source="TAqn6XcjfVY4mnIGSRpS-80" target="TAqn6XcjfVY4mnIGSRpS-2" edge="1">
                    <mxGeometry relative="1" as="geometry"/>
                </mxCell>
                <mxCell id="TAqn6XcjfVY4mnIGSRpS-80" value="has" style="rhombus;whiteSpace=wrap;html=1;" parent="1" vertex="1">
                    <mxGeometry x="660" y="400" width="80" height="50" as="geometry"/>
                </mxCell>
                <mxCell id="TAqn6XcjfVY4mnIGSRpS-84" value="1..1" style="text;html=1;strokeColor=none;fillColor=none;align=center;verticalAlign=middle;whiteSpace=wrap;rounded=0;" parent="1" vertex="1">
                    <mxGeometry x="700" y="250" width="60" height="30" as="geometry"/>
                </mxCell>
                <mxCell id="TAqn6XcjfVY4mnIGSRpS-86" value="1..1" style="text;html=1;strokeColor=none;fillColor=none;align=center;verticalAlign=middle;whiteSpace=wrap;rounded=0;" parent="1" vertex="1">
                    <mxGeometry x="700" y="340" width="60" height="30" as="geometry"/>
                </mxCell>
                <mxCell id="TAqn6XcjfVY4mnIGSRpS-87" value="1..1" style="text;html=1;strokeColor=none;fillColor=none;align=center;verticalAlign=middle;whiteSpace=wrap;rounded=0;" parent="1" vertex="1">
                    <mxGeometry x="570" y="280" width="60" height="30" as="geometry"/>
                </mxCell>
            </root>
        </mxGraphModel>
    </diagram>
    <diagram name="Copy of Copy of Seite-1" id="EVyKNgK6PqEisDDzK64S">
        <mxGraphModel dx="2364" dy="2005" grid="1" gridSize="10" guides="1" tooltips="1" connect="1" arrows="1" fold="1" page="1" pageScale="1" pageWidth="827" pageHeight="1169" math="0" shadow="0">
            <root>
                <mxCell id="0hGduvevjjJdje2xeN39-0"/>
                <mxCell id="0hGduvevjjJdje2xeN39-1" parent="0hGduvevjjJdje2xeN39-0"/>
                <mxCell id="jkF9vi7dwfMakIsP3PiR-4" style="edgeStyle=none;rounded=0;html=1;exitX=0.5;exitY=1;exitDx=0;exitDy=0;entryX=0;entryY=1;entryDx=0;entryDy=0;fontColor=#FFFFFF;endArrow=none;endFill=0;" edge="1" parent="0hGduvevjjJdje2xeN39-1" source="0hGduvevjjJdje2xeN39-3" target="0hGduvevjjJdje2xeN39-46">
                    <mxGeometry relative="1" as="geometry"/>
                </mxCell>
                <mxCell id="0hGduvevjjJdje2xeN39-3" value="Tenant" style="rounded=0;whiteSpace=wrap;html=1;" vertex="1" parent="0hGduvevjjJdje2xeN39-1">
                    <mxGeometry x="640" y="-10" width="120" height="60" as="geometry"/>
                </mxCell>
                <mxCell id="0hGduvevjjJdje2xeN39-4" value="Owner" style="rounded=0;whiteSpace=wrap;html=1;" vertex="1" parent="0hGduvevjjJdje2xeN39-1">
                    <mxGeometry x="640" y="490" width="120" height="60" as="geometry"/>
                </mxCell>
                <mxCell id="0hGduvevjjJdje2xeN39-5" value="Property Manager" style="rounded=0;whiteSpace=wrap;html=1;" vertex="1" parent="0hGduvevjjJdje2xeN39-1">
                    <mxGeometry x="280" y="720" width="120" height="60" as="geometry"/>
                </mxCell>
                <mxCell id="0hGduvevjjJdje2xeN39-70" style="edgeStyle=none;rounded=0;html=1;exitX=0;exitY=0.5;exitDx=0;exitDy=0;entryX=1;entryY=0.5;entryDx=0;entryDy=0;fontColor=#FFFFFF;endArrow=none;endFill=0;startArrow=classic;startFill=1;" edge="1" parent="0hGduvevjjJdje2xeN39-1" source="0hGduvevjjJdje2xeN39-7" target="0hGduvevjjJdje2xeN39-36">
                    <mxGeometry relative="1" as="geometry"/>
                </mxCell>
                <mxCell id="0hGduvevjjJdje2xeN39-7" value="Address" style="rounded=0;whiteSpace=wrap;html=1;" vertex="1" parent="0hGduvevjjJdje2xeN39-1">
                    <mxGeometry x="640" y="615" width="120" height="60" as="geometry"/>
                </mxCell>
                <mxCell id="0hGduvevjjJdje2xeN39-8" value="Property" style="rounded=0;whiteSpace=wrap;html=1;" vertex="1" parent="0hGduvevjjJdje2xeN39-1">
                    <mxGeometry x="280" y="490" width="120" height="60" as="geometry"/>
                </mxCell>
                <mxCell id="0hGduvevjjJdje2xeN39-9" style="edgeStyle=orthogonalEdgeStyle;rounded=0;orthogonalLoop=1;jettySize=auto;html=1;entryX=0.5;entryY=0;entryDx=0;entryDy=0;endArrow=none;endFill=0;startArrow=classic;startFill=1;" edge="1" parent="0hGduvevjjJdje2xeN39-1" source="0hGduvevjjJdje2xeN39-11" target="0hGduvevjjJdje2xeN39-32">
                    <mxGeometry relative="1" as="geometry"/>
                </mxCell>
                <mxCell id="0hGduvevjjJdje2xeN39-10" style="edgeStyle=orthogonalEdgeStyle;rounded=0;orthogonalLoop=1;jettySize=auto;html=1;entryX=0;entryY=0.5;entryDx=0;entryDy=0;endArrow=none;endFill=0;" edge="1" parent="0hGduvevjjJdje2xeN39-1" source="0hGduvevjjJdje2xeN39-11" target="0hGduvevjjJdje2xeN39-19">
                    <mxGeometry relative="1" as="geometry"/>
                </mxCell>
                <mxCell id="0hGduvevjjJdje2xeN39-11" value="Flat" style="rounded=0;whiteSpace=wrap;html=1;" vertex="1" parent="0hGduvevjjJdje2xeN39-1">
                    <mxGeometry x="280" y="280" width="120" height="60" as="geometry"/>
                </mxCell>
                <mxCell id="jkF9vi7dwfMakIsP3PiR-2" style="edgeStyle=none;rounded=0;html=1;exitX=0.5;exitY=0;exitDx=0;exitDy=0;entryX=0.5;entryY=1;entryDx=0;entryDy=0;fontColor=#FFFFFF;endArrow=none;endFill=0;startArrow=none;" edge="1" parent="0hGduvevjjJdje2xeN39-1" source="HlFec462axXaI9mHSaVp-14" target="jkF9vi7dwfMakIsP3PiR-0">
                    <mxGeometry relative="1" as="geometry">
                        <mxPoint x="-70" y="570" as="sourcePoint"/>
                    </mxGeometry>
                </mxCell>
                <mxCell id="0hGduvevjjJdje2xeN39-19" value="Contract" style="shape=associativeEntity;whiteSpace=wrap;html=1;align=center;" vertex="1" parent="0hGduvevjjJdje2xeN39-1">
                    <mxGeometry x="630" y="280" width="140" height="60" as="geometry"/>
                </mxCell>
                <mxCell id="0hGduvevjjJdje2xeN39-21" style="edgeStyle=orthogonalEdgeStyle;rounded=0;orthogonalLoop=1;jettySize=auto;html=1;entryX=1;entryY=0.5;entryDx=0;entryDy=0;endArrow=none;endFill=0;" edge="1" parent="0hGduvevjjJdje2xeN39-1" source="0hGduvevjjJdje2xeN39-23" target="0hGduvevjjJdje2xeN39-8">
                    <mxGeometry relative="1" as="geometry"/>
                </mxCell>
                <mxCell id="0hGduvevjjJdje2xeN39-22" style="edgeStyle=orthogonalEdgeStyle;rounded=0;orthogonalLoop=1;jettySize=auto;html=1;entryX=0;entryY=0.5;entryDx=0;entryDy=0;endArrow=classic;endFill=1;" edge="1" parent="0hGduvevjjJdje2xeN39-1" source="0hGduvevjjJdje2xeN39-23" target="0hGduvevjjJdje2xeN39-4">
                    <mxGeometry relative="1" as="geometry"/>
                </mxCell>
                <mxCell id="0hGduvevjjJdje2xeN39-23" value="has" style="rhombus;whiteSpace=wrap;html=1;" vertex="1" parent="0hGduvevjjJdje2xeN39-1">
                    <mxGeometry x="480" y="495" width="80" height="50" as="geometry"/>
                </mxCell>
                <mxCell id="0hGduvevjjJdje2xeN39-24" value="1..n" style="text;html=1;strokeColor=none;fillColor=none;align=center;verticalAlign=middle;whiteSpace=wrap;rounded=0;" vertex="1" parent="0hGduvevjjJdje2xeN39-1">
                    <mxGeometry x="400" y="490" width="60" height="30" as="geometry"/>
                </mxCell>
                <mxCell id="0hGduvevjjJdje2xeN39-25" value="1..1" style="text;html=1;strokeColor=none;fillColor=none;align=center;verticalAlign=middle;whiteSpace=wrap;rounded=0;" vertex="1" parent="0hGduvevjjJdje2xeN39-1">
                    <mxGeometry x="580" y="490" width="60" height="30" as="geometry"/>
                </mxCell>
                <mxCell id="0hGduvevjjJdje2xeN39-26" style="edgeStyle=orthogonalEdgeStyle;rounded=0;orthogonalLoop=1;jettySize=auto;html=1;entryX=0.5;entryY=1;entryDx=0;entryDy=0;endArrow=classic;endFill=1;" edge="1" parent="0hGduvevjjJdje2xeN39-1" source="0hGduvevjjJdje2xeN39-28" target="0hGduvevjjJdje2xeN39-8">
                    <mxGeometry relative="1" as="geometry"/>
                </mxCell>
                <mxCell id="0hGduvevjjJdje2xeN39-27" style="edgeStyle=orthogonalEdgeStyle;rounded=0;orthogonalLoop=1;jettySize=auto;html=1;endArrow=none;endFill=0;" edge="1" parent="0hGduvevjjJdje2xeN39-1" source="0hGduvevjjJdje2xeN39-28" target="0hGduvevjjJdje2xeN39-5">
                    <mxGeometry relative="1" as="geometry"/>
                </mxCell>
                <mxCell id="0hGduvevjjJdje2xeN39-28" value="manages" style="rhombus;whiteSpace=wrap;html=1;" vertex="1" parent="0hGduvevjjJdje2xeN39-1">
                    <mxGeometry x="300" y="610" width="80" height="50" as="geometry"/>
                </mxCell>
                <mxCell id="0hGduvevjjJdje2xeN39-29" value="1..1" style="text;html=1;strokeColor=none;fillColor=none;align=center;verticalAlign=middle;whiteSpace=wrap;rounded=0;" vertex="1" parent="0hGduvevjjJdje2xeN39-1">
                    <mxGeometry x="340" y="690" width="60" height="30" as="geometry"/>
                </mxCell>
                <mxCell id="0hGduvevjjJdje2xeN39-30" value="0..n" style="text;html=1;strokeColor=none;fillColor=none;align=center;verticalAlign=middle;whiteSpace=wrap;rounded=0;" vertex="1" parent="0hGduvevjjJdje2xeN39-1">
                    <mxGeometry x="340" y="550" width="60" height="30" as="geometry"/>
                </mxCell>
                <mxCell id="0hGduvevjjJdje2xeN39-31" style="edgeStyle=orthogonalEdgeStyle;rounded=0;orthogonalLoop=1;jettySize=auto;html=1;endArrow=none;endFill=0;" edge="1" parent="0hGduvevjjJdje2xeN39-1" source="0hGduvevjjJdje2xeN39-32" target="0hGduvevjjJdje2xeN39-8">
                    <mxGeometry relative="1" as="geometry"/>
                </mxCell>
                <mxCell id="0hGduvevjjJdje2xeN39-32" value="has" style="rhombus;whiteSpace=wrap;html=1;" vertex="1" parent="0hGduvevjjJdje2xeN39-1">
                    <mxGeometry x="300" y="400" width="80" height="50" as="geometry"/>
                </mxCell>
                <mxCell id="0hGduvevjjJdje2xeN39-33" value="1..n" style="text;html=1;strokeColor=none;fillColor=none;align=center;verticalAlign=middle;whiteSpace=wrap;rounded=0;" vertex="1" parent="0hGduvevjjJdje2xeN39-1">
                    <mxGeometry x="340" y="340" width="60" height="30" as="geometry"/>
                </mxCell>
                <mxCell id="0hGduvevjjJdje2xeN39-34" value="1..1" style="text;html=1;strokeColor=none;fillColor=none;align=center;verticalAlign=middle;whiteSpace=wrap;rounded=0;" vertex="1" parent="0hGduvevjjJdje2xeN39-1">
                    <mxGeometry x="340" y="460" width="60" height="30" as="geometry"/>
                </mxCell>
                <mxCell id="0hGduvevjjJdje2xeN39-71" style="edgeStyle=none;rounded=0;html=1;exitX=0;exitY=0.5;exitDx=0;exitDy=0;entryX=1;entryY=0.75;entryDx=0;entryDy=0;fontColor=#FFFFFF;endArrow=none;endFill=0;" edge="1" parent="0hGduvevjjJdje2xeN39-1" source="0hGduvevjjJdje2xeN39-36" target="0hGduvevjjJdje2xeN39-8">
                    <mxGeometry relative="1" as="geometry">
                        <Array as="points">
                            <mxPoint x="430" y="645"/>
                            <mxPoint x="430" y="535"/>
                        </Array>
                    </mxGeometry>
                </mxCell>
                <mxCell id="0hGduvevjjJdje2xeN39-36" value="has" style="rhombus;whiteSpace=wrap;html=1;" vertex="1" parent="0hGduvevjjJdje2xeN39-1">
                    <mxGeometry x="480" y="620" width="80" height="50" as="geometry"/>
                </mxCell>
                <mxCell id="0hGduvevjjJdje2xeN39-37" value="1..1" style="text;html=1;strokeColor=none;fillColor=none;align=center;verticalAlign=middle;whiteSpace=wrap;rounded=0;" vertex="1" parent="0hGduvevjjJdje2xeN39-1">
                    <mxGeometry x="590" y="615" width="60" height="30" as="geometry"/>
                </mxCell>
                <mxCell id="0hGduvevjjJdje2xeN39-38" value="1..1" style="text;html=1;strokeColor=none;fillColor=none;align=center;verticalAlign=middle;whiteSpace=wrap;rounded=0;" vertex="1" parent="0hGduvevjjJdje2xeN39-1">
                    <mxGeometry x="384" y="530" width="60" height="30" as="geometry"/>
                </mxCell>
                <mxCell id="0hGduvevjjJdje2xeN39-39" value="1..1" style="text;html=1;strokeColor=none;fillColor=none;align=center;verticalAlign=middle;whiteSpace=wrap;rounded=0;" vertex="1" parent="0hGduvevjjJdje2xeN39-1">
                    <mxGeometry x="400" y="280" width="60" height="30" as="geometry"/>
                </mxCell>
                <mxCell id="0hGduvevjjJdje2xeN39-40" value="1..1" style="text;html=1;strokeColor=none;fillColor=none;align=center;verticalAlign=middle;whiteSpace=wrap;rounded=0;" vertex="1" parent="0hGduvevjjJdje2xeN39-1">
                    <mxGeometry x="700" y="50" width="60" height="30" as="geometry"/>
                </mxCell>
                <mxCell id="0hGduvevjjJdje2xeN39-41" value="1..1" style="text;html=1;strokeColor=none;fillColor=none;align=center;verticalAlign=middle;whiteSpace=wrap;rounded=0;" vertex="1" parent="0hGduvevjjJdje2xeN39-1">
                    <mxGeometry x="700" y="460" width="60" height="30" as="geometry"/>
                </mxCell>
                <mxCell id="0hGduvevjjJdje2xeN39-46" value="1..1" style="text;html=1;strokeColor=none;fillColor=none;align=center;verticalAlign=middle;whiteSpace=wrap;rounded=0;" vertex="1" parent="0hGduvevjjJdje2xeN39-1">
                    <mxGeometry x="700" y="250" width="60" height="30" as="geometry"/>
                </mxCell>
                <mxCell id="jkF9vi7dwfMakIsP3PiR-5" style="edgeStyle=none;rounded=0;html=1;exitX=0;exitY=0;exitDx=0;exitDy=0;entryX=0;entryY=1;entryDx=0;entryDy=0;fontColor=#FFFFFF;endArrow=none;endFill=0;" edge="1" parent="0hGduvevjjJdje2xeN39-1" source="0hGduvevjjJdje2xeN39-47" target="0hGduvevjjJdje2xeN39-41">
                    <mxGeometry relative="1" as="geometry"/>
                </mxCell>
                <mxCell id="0hGduvevjjJdje2xeN39-47" value="1..1" style="text;html=1;strokeColor=none;fillColor=none;align=center;verticalAlign=middle;whiteSpace=wrap;rounded=0;" vertex="1" parent="0hGduvevjjJdje2xeN39-1">
                    <mxGeometry x="700" y="340" width="60" height="30" as="geometry"/>
                </mxCell>
                <mxCell id="0hGduvevjjJdje2xeN39-48" value="1..1" style="text;html=1;strokeColor=none;fillColor=none;align=center;verticalAlign=middle;whiteSpace=wrap;rounded=0;" vertex="1" parent="0hGduvevjjJdje2xeN39-1">
                    <mxGeometry x="570" y="280" width="60" height="30" as="geometry"/>
                </mxCell>
                <mxCell id="9nK8H9Ds39LdAk6SyZOI-0" style="edgeStyle=none;rounded=0;html=1;exitX=0.5;exitY=1;exitDx=0;exitDy=0;entryX=0.5;entryY=0;entryDx=0;entryDy=0;fontColor=#FFFFFF;endArrow=classic;endFill=1;startArrow=none;" edge="1" parent="0hGduvevjjJdje2xeN39-1" source="HlFec462axXaI9mHSaVp-8" target="0hGduvevjjJdje2xeN39-11">
                    <mxGeometry relative="1" as="geometry">
                        <mxPoint x="280" y="80" as="targetPoint"/>
                        <Array as="points"/>
                    </mxGeometry>
                </mxCell>
                <mxCell id="9nK8H9Ds39LdAk6SyZOI-2" style="edgeStyle=none;rounded=0;html=1;exitX=0;exitY=0.5;exitDx=0;exitDy=0;entryX=0.5;entryY=0;entryDx=0;entryDy=0;fontColor=#FFFFFF;endArrow=classic;endFill=1;startArrow=none;" edge="1" parent="0hGduvevjjJdje2xeN39-1" source="RyfldAJTVH-ibpniO126-1" target="jkF9vi7dwfMakIsP3PiR-0">
                    <mxGeometry relative="1" as="geometry">
                        <Array as="points">
                            <mxPoint x="-70" y="20"/>
                        </Array>
                    </mxGeometry>
                </mxCell>
                <mxCell id="0hGduvevjjJdje2xeN39-58" value="SCS" style="rounded=0;whiteSpace=wrap;html=1;fontColor=#FFFFFF;" vertex="1" parent="0hGduvevjjJdje2xeN39-1">
                    <mxGeometry x="280" y="-10" width="120" height="60" as="geometry"/>
                </mxCell>
                <mxCell id="RyfldAJTVH-ibpniO126-19" style="edgeStyle=none;rounded=0;html=1;exitX=1;exitY=0.5;exitDx=0;exitDy=0;entryX=0;entryY=0.5;entryDx=0;entryDy=0;fontColor=#FFFFFF;startArrow=none;startFill=0;endArrow=none;endFill=0;" edge="1" parent="0hGduvevjjJdje2xeN39-1" source="jkF9vi7dwfMakIsP3PiR-0" target="RyfldAJTVH-ibpniO126-18">
                    <mxGeometry relative="1" as="geometry"/>
                </mxCell>
                <mxCell id="jkF9vi7dwfMakIsP3PiR-0" value="OperationCostPosition" style="rounded=0;whiteSpace=wrap;html=1;fontColor=#FFFFFF;" vertex="1" parent="0hGduvevjjJdje2xeN39-1">
                    <mxGeometry x="-130" y="280" width="120" height="60" as="geometry"/>
                </mxCell>
                <mxCell id="HlFec462axXaI9mHSaVp-3" style="edgeStyle=none;rounded=0;html=1;exitX=1;exitY=0.5;exitDx=0;exitDy=0;entryX=0;entryY=0.5;entryDx=0;entryDy=0;fontColor=#FFFFFF;startArrow=none;startFill=0;endArrow=none;endFill=0;" edge="1" parent="0hGduvevjjJdje2xeN39-1" source="HlFec462axXaI9mHSaVp-0" target="HlFec462axXaI9mHSaVp-2">
                    <mxGeometry relative="1" as="geometry"/>
                </mxCell>
                <mxCell id="HlFec462axXaI9mHSaVp-0" value="Invoice" style="rounded=0;whiteSpace=wrap;html=1;fontColor=#FFFFFF;" vertex="1" parent="0hGduvevjjJdje2xeN39-1">
                    <mxGeometry x="-135" y="490" width="130" height="60" as="geometry"/>
                </mxCell>
                <mxCell id="HlFec462axXaI9mHSaVp-4" style="edgeStyle=none;rounded=0;html=1;exitX=1;exitY=0.5;exitDx=0;exitDy=0;fontColor=#FFFFFF;startArrow=none;startFill=0;endArrow=classic;endFill=1;" edge="1" parent="0hGduvevjjJdje2xeN39-1" source="HlFec462axXaI9mHSaVp-2" target="0hGduvevjjJdje2xeN39-8">
                    <mxGeometry relative="1" as="geometry"/>
                </mxCell>
                <mxCell id="HlFec462axXaI9mHSaVp-2" value="is issued to" style="rhombus;whiteSpace=wrap;html=1;" vertex="1" parent="0hGduvevjjJdje2xeN39-1">
                    <mxGeometry x="100" y="495" width="80" height="50" as="geometry"/>
                </mxCell>
                <mxCell id="HlFec462axXaI9mHSaVp-5" value="0..n" style="text;html=1;strokeColor=none;fillColor=none;align=center;verticalAlign=middle;whiteSpace=wrap;rounded=0;" vertex="1" parent="0hGduvevjjJdje2xeN39-1">
                    <mxGeometry x="-20" y="490" width="60" height="30" as="geometry"/>
                </mxCell>
                <mxCell id="HlFec462axXaI9mHSaVp-6" value="1..1" style="text;html=1;strokeColor=none;fillColor=none;align=center;verticalAlign=middle;whiteSpace=wrap;rounded=0;" vertex="1" parent="0hGduvevjjJdje2xeN39-1">
                    <mxGeometry x="220" y="490" width="60" height="30" as="geometry"/>
                </mxCell>
                <mxCell id="HlFec462axXaI9mHSaVp-8" value="is issued to" style="rhombus;whiteSpace=wrap;html=1;" vertex="1" parent="0hGduvevjjJdje2xeN39-1">
                    <mxGeometry x="300" y="140" width="80" height="50" as="geometry"/>
                </mxCell>
                <mxCell id="HlFec462axXaI9mHSaVp-10" value="" style="edgeStyle=none;rounded=0;html=1;exitX=0.5;exitY=1;exitDx=0;exitDy=0;entryX=0.5;entryY=0;entryDx=0;entryDy=0;fontColor=#FFFFFF;endArrow=none;endFill=0;" edge="1" parent="0hGduvevjjJdje2xeN39-1" source="0hGduvevjjJdje2xeN39-58" target="HlFec462axXaI9mHSaVp-8">
                    <mxGeometry relative="1" as="geometry">
                        <mxPoint x="340" y="50" as="sourcePoint"/>
                        <mxPoint x="340" y="280" as="targetPoint"/>
                        <Array as="points"/>
                    </mxGeometry>
                </mxCell>
                <mxCell id="HlFec462axXaI9mHSaVp-12" value="0..n" style="text;html=1;strokeColor=none;fillColor=none;align=center;verticalAlign=middle;whiteSpace=wrap;rounded=0;" vertex="1" parent="0hGduvevjjJdje2xeN39-1">
                    <mxGeometry x="340" y="50" width="60" height="30" as="geometry"/>
                </mxCell>
                <mxCell id="HlFec462axXaI9mHSaVp-14" value="derived from" style="rhombus;whiteSpace=wrap;html=1;" vertex="1" parent="0hGduvevjjJdje2xeN39-1">
                    <mxGeometry x="-110" y="400" width="80" height="50" as="geometry"/>
                </mxCell>
                <mxCell id="HlFec462axXaI9mHSaVp-15" value="" style="edgeStyle=none;rounded=0;html=1;exitX=0.5;exitY=0;exitDx=0;exitDy=0;entryX=0.5;entryY=1;entryDx=0;entryDy=0;fontColor=#FFFFFF;endArrow=none;endFill=0;startArrow=classic;startFill=1;" edge="1" parent="0hGduvevjjJdje2xeN39-1" target="HlFec462axXaI9mHSaVp-14">
                    <mxGeometry relative="1" as="geometry">
                        <mxPoint x="-70" y="490" as="sourcePoint"/>
                        <mxPoint x="-70" y="330" as="targetPoint"/>
                    </mxGeometry>
                </mxCell>
                <mxCell id="RyfldAJTVH-ibpniO126-1" value="consists of" style="rhombus;whiteSpace=wrap;html=1;" vertex="1" parent="0hGduvevjjJdje2xeN39-1">
                    <mxGeometry x="100" y="-5" width="80" height="50" as="geometry"/>
                </mxCell>
                <mxCell id="RyfldAJTVH-ibpniO126-2" value="" style="edgeStyle=none;rounded=0;html=1;exitX=0;exitY=0.5;exitDx=0;exitDy=0;entryX=1;entryY=0.5;entryDx=0;entryDy=0;fontColor=#FFFFFF;endArrow=none;endFill=0;startArrow=none;startFill=0;" edge="1" parent="0hGduvevjjJdje2xeN39-1" source="0hGduvevjjJdje2xeN39-58" target="RyfldAJTVH-ibpniO126-1">
                    <mxGeometry relative="1" as="geometry">
                        <mxPoint x="280" y="20" as="sourcePoint"/>
                        <mxPoint x="-130.00000000000023" y="200" as="targetPoint"/>
                        <Array as="points"/>
                    </mxGeometry>
                </mxCell>
                <mxCell id="RyfldAJTVH-ibpniO126-3" value="1..1" style="text;html=1;strokeColor=none;fillColor=none;align=center;verticalAlign=middle;whiteSpace=wrap;rounded=0;" vertex="1" parent="0hGduvevjjJdje2xeN39-1">
                    <mxGeometry x="230" y="-10" width="60" height="30" as="geometry"/>
                </mxCell>
                <mxCell id="RyfldAJTVH-ibpniO126-4" value="1..n" style="text;html=1;strokeColor=none;fillColor=none;align=center;verticalAlign=middle;whiteSpace=wrap;rounded=0;" vertex="1" parent="0hGduvevjjJdje2xeN39-1">
                    <mxGeometry x="-70" y="250" width="60" height="30" as="geometry"/>
                </mxCell>
                <mxCell id="RyfldAJTVH-ibpniO126-5" value="1..1" style="text;html=1;strokeColor=none;fillColor=none;align=center;verticalAlign=middle;whiteSpace=wrap;rounded=0;" vertex="1" parent="0hGduvevjjJdje2xeN39-1">
                    <mxGeometry x="-60" y="460" width="60" height="30" as="geometry"/>
                </mxCell>
                <mxCell id="RyfldAJTVH-ibpniO126-6" value="1..n" style="text;html=1;strokeColor=none;fillColor=none;align=center;verticalAlign=middle;whiteSpace=wrap;rounded=0;" vertex="1" parent="0hGduvevjjJdje2xeN39-1">
                    <mxGeometry x="-65" y="340" width="60" height="30" as="geometry"/>
                </mxCell>
                <mxCell id="RyfldAJTVH-ibpniO126-15" style="edgeStyle=none;rounded=0;html=1;exitX=0.5;exitY=1;exitDx=0;exitDy=0;entryX=0.5;entryY=0;entryDx=0;entryDy=0;fontColor=#FFFFFF;startArrow=classic;startFill=1;endArrow=none;endFill=0;" edge="1" parent="0hGduvevjjJdje2xeN39-1" source="RyfldAJTVH-ibpniO126-16" target="RyfldAJTVH-ibpniO126-18">
                    <mxGeometry relative="1" as="geometry"/>
                </mxCell>
                <mxCell id="RyfldAJTVH-ibpniO126-16" value="AllocationType" style="rounded=0;whiteSpace=wrap;html=1;fontColor=#FFFFFF;" vertex="1" parent="0hGduvevjjJdje2xeN39-1">
                    <mxGeometry x="80" y="140" width="120" height="60" as="geometry"/>
                </mxCell>
                <mxCell id="RyfldAJTVH-ibpniO126-17" value="1..1" style="text;html=1;strokeColor=none;fillColor=none;align=center;verticalAlign=middle;whiteSpace=wrap;rounded=0;" vertex="1" parent="0hGduvevjjJdje2xeN39-1">
                    <mxGeometry x="140" y="200" width="60" height="30" as="geometry"/>
                </mxCell>
                <mxCell id="RyfldAJTVH-ibpniO126-18" value="has" style="rhombus;whiteSpace=wrap;html=1;" vertex="1" parent="0hGduvevjjJdje2xeN39-1">
                    <mxGeometry x="100" y="285" width="80" height="50" as="geometry"/>
                </mxCell>
                <mxCell id="RyfldAJTVH-ibpniO126-20" value="1..1" style="text;html=1;strokeColor=none;fillColor=none;align=center;verticalAlign=middle;whiteSpace=wrap;rounded=0;" vertex="1" parent="0hGduvevjjJdje2xeN39-1">
                    <mxGeometry x="-20" y="305" width="60" height="30" as="geometry"/>
                </mxCell>
            </root>
        </mxGraphModel>
    </diagram>
</mxfile>